<svg xmlns="http://www.w3.org/2000/svg" xmlns:xlink="http://www.w3.org/1999/xlink" version="1.1" viewBox="0 0 2500 1000" style="background: #ffffff"><defs><style>@import url(https://fonts.googleapis.com/css?family=Open+Sans:400,700);</style></defs><g transform="translate(25,100)"><rect width="450" height="300" rx="3" ry="3" x="0" y="0" fill="#1168bd" stroke-width="2" stroke="#0f5eaa"/><text x="225" y="132" text-anchor="middle" fill="#ffffff" font-size="30px" font-family="Open Sans"><tspan x="225" dy="40px">Alg</tspan></text></g><g transform="translate(525,100)"><rect width="450" height="300" rx="3" ry="3" x="0" y="0" fill="#dddddd" stroke-width="2" stroke="#c7c7c7"/><text x="225" y="132" text-anchor="middle" fill="#000000" font-size="30px" font-family="Open Sans"><tspan x="225" dy="40px">Element</tspan></text></g><g transform="translate(1025,100)"><rect width="450" height="300" rx="3" ry="3" x="0" y="0" fill="#ffebee" stroke-width="2" stroke="#e6d4d6"/><text x="225" y="132" text-anchor="middle" fill="#b71c1c" font-size="30px" font-family="Open Sans"><tspan x="225" dy="40px">Fw</tspan></text></g><g transform="translate(1525,170)"><path d="M390,0 L390,60 L450,30 L 390,0" style="fill:#1168bd" stroke-dasharray="" /><path d="M0,30 L390,30" style="stroke:#1168bd; stroke-width: 36; fill: none; stroke-dasharray: 30 30;" /><text x="225" y="77" text-anchor="middle" fill="#1168bd" font-size="30px" font-family="Open Sans"><tspan x="225" dy="40px">Alg-link</tspan></text></g><g transform="translate(2025,170)"><path d="M390,0 L390,60 L450,30 L 390,0" style="fill:#e53935" stroke-dasharray="" /><path d="M0,30 L390,30" style="stroke:#e53935; stroke-width: 36; fill: none; stroke-dasharray: 30 30;" /><text x="225" y="77" text-anchor="middle" fill="#e53935" font-size="30px" font-family="Open Sans"><tspan x="225" dy="40px">Fw-link</tspan></text></g><g transform="translate(25,670)"><path d="M390,0 L390,60 L450,30 L 390,0" style="fill:#707070" stroke-dasharray="" /><path d="M0,30 L390,30" style="stroke:#707070; stroke-width: 36; fill: none; stroke-dasharray: 30 30;" /><text x="225" y="77" text-anchor="middle" fill="#707070" font-size="30px" font-family="Open Sans"><tspan x="225" dy="40px">Relationship</tspan></text></g></svg>